<?xml version="1.0" encoding="UTF-8"?>
<svg width="424.74" height="200.23" version="1.1" viewBox="0 0 112.37855 52.978799" xmlns="http://www.w3.org/2000/svg" xmlns:cc="http://creativecommons.org/ns#" xmlns:dc="http://purl.org/dc/elements/1.1/" xmlns:rdf="http://www.w3.org/1999/02/22-rdf-syntax-ns#">
<metadata>
<rdf:RDF>
<cc:Work rdf:about="">
<dc:format>image/svg+xml</dc:format>
<dc:type rdf:resource="http://purl.org/dc/dcmitype/StillImage"/>
<dc:title/>
</cc:Work>
</rdf:RDF>
</metadata>
<g transform="translate(1.5947 -26.87)">
<g transform="matrix(.80395 0 0 .80395 -23.752 -15.748)">
<path transform="scale(.26458)" d="m167.77 280.67-45.961 7.8047v5.4922c2.8906-0.57812 5.7813-1.1562 8.6719-1.1562 5.2031 0 12.141 1.1563 12.141 7.8047 0 3.7578-2.0235 9.2501-6.0703 23.703l-15.32 54.631c-1.1562 4.3359-4.625 15.031-4.625 19.656 0 8.3828 5.4922 13.297 13.586 13.297 15.031 0 32.664-20.524 40.469-32.375l-4.9141-3.1797c-4.0468 5.4922-15.031 19.656-21.68 19.656-2.6015 0-4.0469-1.1562-4.0469-3.7578 0-2.8906 1.1562-6.6484 2.0234-9.25l28.617-102.33z" fill="#2ca2a0" stroke-width="7.2265"/>
<path d="m44.541 56.303c-3.7843 0-6.8678 3.0835-6.8678 6.8678 0 3.7843 3.0835 6.8678 6.8678 6.8678 3.7843 0 6.8678-3.0835 6.8678-6.8678 0-3.7843-3.0835-6.8678-6.8678-6.8678z" fill="#e52429" stroke-width="3.504"/>
<path d="m60.455 76.467h-0.59501l-9.4606 1.6065v1.1305c0.59501-0.119 1.19-0.238 1.785-0.238 1.071 0 2.499 0.238 2.499 1.6065 0 0.77351-0.4165 1.904-1.2495 4.879l-3.1535 11.246c-0.238 0.89251-0.95201 3.094-0.95201 4.046 0 1.7255 1.1305 2.737 2.7965 2.737 3.094 0 6.7236-4.2245 8.3301-6.6641l-1.0115-0.65451c-0.83301 1.1305-3.094 4.046-4.4625 4.046-0.53551 0-0.83301-0.238-0.83301-0.7735 0-0.59501 0.238-1.3685 0.4165-1.904zm-3.3915-8.6276c0 1.6065 1.309 2.9155 2.9155 2.9155s2.9155-1.309 2.9155-2.9155-1.309-2.9155-2.9155-2.9155-2.9155 1.309-2.9155 2.9155z" fill="#2ca2a0" stroke-width="1.4875"/>
<path d="m76.868 77.181h-4.284c2.3205-8.0921 4.5815-14.399 9.6391-14.399 0.59501 0 1.3685 0.119 1.3685 0.83301 0 0.238-0.77351 1.19-0.77351 2.023 0 1.1305 1.0115 1.785 2.0825 1.785 1.428 0 2.38-1.071 2.38-2.499 0-2.4395-3.094-3.451-5.0576-3.451-1.6065 0-7.4376 0.77351-12.019 10.353-2.023 4.2245-2.737 5.3551-7.2591 5.3551l-0.476 1.904h5.1171l-4.9386 18.981c-2.7965 10.829-4.284 16.244-9.4606 16.244-0.357 0-1.0115-0.11901-1.0115-0.59501 0-0.4165 1.071-0.65451 1.071-1.7255 0-0.95201-0.89251-1.6065-1.8445-1.6065-1.3685 0-2.5585 0.95201-2.5585 2.38 0 1.904 2.3205 2.856 3.927 2.856 7.7351 0 13.09-11.603 15.232-20.23l4.1055-16.303h4.2245z" fill="#2ca2a0" stroke-width="1.4875"/>
<path d="m87.181 76.467h-0.59501l-9.4606 1.6065v1.1305c0.59501-0.119 1.19-0.238 1.785-0.238 1.071 0 2.499 0.238 2.499 1.6065 0 0.77351-0.4165 1.904-1.2495 4.879l-4.879 17.315h4.3435l0.83301-3.0345c2.6775-9.7581 9.8771-19.814 12.971-19.814 1.2495 0 1.4875 0.77351 1.4875 1.547 0 1.1305-0.714 3.2725-1.0115 4.403l-4.76 16.898h4.3435l1.547-4.76c1.9635-6.1286 8.9846-18.088 12.733-18.088 1.0115 0 1.3685 0.59501 1.3685 1.4875 0 1.071-0.41651 2.499-2.3205 9.0441-1.9635 6.7236-2.6775 9.2226-2.6775 10.532 0 1.4875 1.071 2.499 2.499 2.499 2.7965 0 6.4261-4.046 7.9731-6.6641l-0.95201-0.53551c-0.71401 1.0115-2.975 3.927-4.165 3.927-0.47601 0-0.77351-0.476-0.77351-0.8925 0-0.5355 1.309-4.76 2.261-7.8541 2.38-8.0921 2.7965-9.1631 2.7965-11.484 0-1.904-1.309-3.5105-3.332-3.5105-5.5336 0-11.127 9.9961-13.388 14.161l-0.119-0.119 1.8445-6.3071c0.35701-1.19 0.833-3.0345 0.833-4.3435 0-1.904-1.309-3.3915-3.2725-3.3915-5.5335 0-10.651 8.7466-12.793 12.852l-0.119-0.119z" fill="#2ca2a0" stroke-width="1.4875"/>
<path d="m136.72 95.805c-3.3915 2.618-6.1286 4.641-9.5796 4.641-3.5105 0-6.4856-2.5585-6.4856-6.1881 0-0.83301 0.119-1.666 0.238-2.38 9.1036-0.89251 18.505-4.8195 18.505-11.127 0-3.3915-3.451-4.284-6.1881-4.284-8.9251 0-17.553 9.5201-17.553 18.326 0 2.261 1.4875 8.6871 8.4491 8.6871 5.1766 0 9.6986-3.332 13.209-6.8426zm-15.589-5.4146c0.95201-5.0576 5.4741-12.495 11.186-12.495 1.7255 0 2.9155 1.0115 2.9155 2.7965 0 3.1535-3.927 8.5086-14.102 9.6986z" fill="#2ca2a0" stroke-width="1.4875"/>
<path d="m160.9 95.686c-2.618 2.737-5.4146 5.1766-9.3416 5.1766-4.1055 0-6.3666-2.618-6.3666-6.6046 0-6.7236 5.3551-16.363 12.912-16.363 0.95201 0 2.856 0.4165 2.856 1.666 0 1.071-2.0825 1.309-2.0825 3.451 0 1.19 0.89251 2.0825 2.0825 2.0825 2.0825 0 3.094-2.3205 3.094-4.165 0-3.3915-3.6295-4.4625-6.3666-4.4625-8.5681 0-17.315 9.4011-17.315 18.386 0 5.355 3.3915 8.6276 8.6871 8.6276 5.4146 0 9.4011-3.0345 12.674-7.0806z" fill="#2ca2a0" stroke-width="1.4875"/>
</g>
</g>
</svg>
